<?xml version="1.0" encoding="UTF-8" standalone="no"?><svg xmlns="http://www.w3.org/2000/svg" xmlns:xlink="http://www.w3.org/1999/xlink" contentScriptType="application/ecmascript" contentStyleType="text/css" height="107px" preserveAspectRatio="none" style="width:446px;height:107px;background:#FFFFFF;" version="1.1" viewBox="0 0 446 107" width="446px" zoomAndPan="magnify"><defs/><g><text fill="#000000" font-family="sans-serif" font-size="12" lengthAdjust="spacing" textLength="285" x="6" y="31.1074">You are viewing Oxygen Saturation information.</text><text fill="#000000" font-family="sans-serif" font-size="12" lengthAdjust="spacing" textLength="183" x="6" y="47.0762">View Data as a Table or Graph</text><text fill="#000000" font-family="sans-serif" font-size="12" lengthAdjust="spacing" textLength="28" x="7" y="64.0449">Date</text><text fill="#000000" font-family="sans-serif" font-size="12" lengthAdjust="spacing" textLength="29" x="82" y="64.0449">Time</text><text fill="#000000" font-family="sans-serif" font-size="12" lengthAdjust="spacing" textLength="134" x="141" y="64.0449">Oximeter Reading (%)</text><text fill="#000000" font-family="sans-serif" font-size="12" lengthAdjust="spacing" textLength="63" x="277" y="64.0449">Heart Rate</text><text fill="#000000" font-family="sans-serif" font-size="12" lengthAdjust="spacing" textLength="95" x="342" y="64.0449">Respiration rate</text><text fill="#000000" font-family="sans-serif" font-size="12" lengthAdjust="spacing" textLength="73" x="7" y="80.0137">2021-05-20</text><text fill="#000000" font-family="sans-serif" font-size="12" lengthAdjust="spacing" textLength="50" x="82" y="80.0137">9:54 AM</text><text fill="#000000" font-family="sans-serif" font-size="12" lengthAdjust="spacing" textLength="16" x="141" y="80.0137">95</text><text fill="#000000" font-family="sans-serif" font-size="12" lengthAdjust="spacing" textLength="16" x="277" y="80.0137">60</text><text fill="#000000" font-family="sans-serif" font-size="12" lengthAdjust="spacing" textLength="15" x="342" y="80.0137">12</text><text fill="#000000" font-family="sans-serif" font-size="12" lengthAdjust="spacing" textLength="73" x="7" y="95.9824">2021-05-20</text><text fill="#000000" font-family="sans-serif" font-size="12" lengthAdjust="spacing" textLength="57" x="82" y="95.9824">10:04 AM</text><text fill="#000000" font-family="sans-serif" font-size="12" lengthAdjust="spacing" textLength="16" x="141" y="95.9824">98</text><text fill="#000000" font-family="sans-serif" font-size="12" lengthAdjust="spacing" textLength="16" x="277" y="95.9824">76</text><text fill="#000000" font-family="sans-serif" font-size="12" lengthAdjust="spacing" textLength="15" x="342" y="95.9824">18</text><line style="stroke:#000000;stroke-width:1.0;" x1="6" x2="81" y1="51.9063" y2="51.9063"/><line style="stroke:#000000;stroke-width:1.0;" x1="140" x2="276" y1="83.8438" y2="83.8438"/><line style="stroke:#000000;stroke-width:1.0;" x1="81" x2="140" y1="51.9063" y2="51.9063"/><line style="stroke:#000000;stroke-width:1.0;" x1="276" x2="341" y1="83.8438" y2="83.8438"/><line style="stroke:#000000;stroke-width:1.0;" x1="140" x2="276" y1="51.9063" y2="51.9063"/><line style="stroke:#000000;stroke-width:1.0;" x1="341" x2="438" y1="83.8438" y2="83.8438"/><line style="stroke:#000000;stroke-width:1.0;" x1="276" x2="341" y1="51.9063" y2="51.9063"/><line style="stroke:#000000;stroke-width:1.0;" x1="341" x2="438" y1="51.9063" y2="51.9063"/><line style="stroke:#000000;stroke-width:1.0;" x1="6" x2="81" y1="99.8125" y2="99.8125"/><line style="stroke:#000000;stroke-width:1.0;" x1="81" x2="140" y1="99.8125" y2="99.8125"/><line style="stroke:#000000;stroke-width:1.0;" x1="140" x2="276" y1="99.8125" y2="99.8125"/><line style="stroke:#000000;stroke-width:1.0;" x1="6" x2="81" y1="67.875" y2="67.875"/><line style="stroke:#000000;stroke-width:1.0;" x1="276" x2="341" y1="99.8125" y2="99.8125"/><line style="stroke:#000000;stroke-width:1.0;" x1="81" x2="140" y1="67.875" y2="67.875"/><line style="stroke:#000000;stroke-width:1.0;" x1="341" x2="438" y1="99.8125" y2="99.8125"/><line style="stroke:#000000;stroke-width:1.0;" x1="140" x2="276" y1="67.875" y2="67.875"/><line style="stroke:#000000;stroke-width:1.0;" x1="276" x2="341" y1="67.875" y2="67.875"/><line style="stroke:#000000;stroke-width:1.0;" x1="341" x2="438" y1="67.875" y2="67.875"/><line style="stroke:#000000;stroke-width:1.0;" x1="6" x2="81" y1="83.8438" y2="83.8438"/><line style="stroke:#000000;stroke-width:1.0;" x1="81" x2="140" y1="83.8438" y2="83.8438"/><line style="stroke:#000000;stroke-width:1.0;" x1="6" x2="6" y1="51.9063" y2="67.875"/><line style="stroke:#000000;stroke-width:1.0;" x1="140" x2="140" y1="83.8438" y2="99.8125"/><line style="stroke:#000000;stroke-width:1.0;" x1="81" x2="81" y1="51.9063" y2="67.875"/><line style="stroke:#000000;stroke-width:1.0;" x1="276" x2="276" y1="83.8438" y2="99.8125"/><line style="stroke:#000000;stroke-width:1.0;" x1="140" x2="140" y1="51.9063" y2="67.875"/><line style="stroke:#000000;stroke-width:1.0;" x1="341" x2="341" y1="83.8438" y2="99.8125"/><line style="stroke:#000000;stroke-width:1.0;" x1="438" x2="438" y1="83.8438" y2="99.8125"/><line style="stroke:#000000;stroke-width:1.0;" x1="276" x2="276" y1="51.9063" y2="67.875"/><line style="stroke:#000000;stroke-width:1.0;" x1="341" x2="341" y1="51.9063" y2="67.875"/><line style="stroke:#000000;stroke-width:1.0;" x1="438" x2="438" y1="51.9063" y2="67.875"/><line style="stroke:#000000;stroke-width:1.0;" x1="6" x2="6" y1="67.875" y2="83.8438"/><line style="stroke:#000000;stroke-width:1.0;" x1="81" x2="81" y1="67.875" y2="83.8438"/><line style="stroke:#000000;stroke-width:1.0;" x1="140" x2="140" y1="67.875" y2="83.8438"/><line style="stroke:#000000;stroke-width:1.0;" x1="276" x2="276" y1="67.875" y2="83.8438"/><line style="stroke:#000000;stroke-width:1.0;" x1="341" x2="341" y1="67.875" y2="83.8438"/><line style="stroke:#000000;stroke-width:1.0;" x1="438" x2="438" y1="67.875" y2="83.8438"/><line style="stroke:#000000;stroke-width:1.0;" x1="6" x2="6" y1="83.8438" y2="99.8125"/><line style="stroke:#000000;stroke-width:1.0;" x1="81" x2="81" y1="83.8438" y2="99.8125"/><line style="stroke:#000000;stroke-width:1.0;" x1="5" x2="439" y1="11.9844" y2="11.9844"/><line style="stroke:#000000;stroke-width:1.0;" x1="5" x2="439" y1="100.8125" y2="100.8125"/><line style="stroke:#000000;stroke-width:1.0;" x1="5" x2="5" y1="11.9844" y2="34.9375"/><line style="stroke:#000000;stroke-width:1.0;" x1="439" x2="439" y1="34.9375" y2="50.9063"/><line style="stroke:#000000;stroke-width:1.0;" x1="439" x2="439" y1="11.9844" y2="34.9375"/><line style="stroke:#000000;stroke-width:1.0;" x1="5" x2="5" y1="50.9063" y2="100.8125"/><line style="stroke:#000000;stroke-width:1.0;" x1="5" x2="5" y1="34.9375" y2="50.9063"/><line style="stroke:#000000;stroke-width:1.0;" x1="439" x2="439" y1="50.9063" y2="100.8125"/><rect fill="#FFFFFF" height="13.9688" style="stroke:#FFFFFF;stroke-width:1.0;" width="293" x="11" y="5"/><text fill="#000000" font-family="sans-serif" font-size="12" lengthAdjust="spacing" textLength="293" x="11" y="16.1387">MHV View Oxygen Saturation Information (PGHD)</text><!--MD5=[5333af5be729d62ab1a11e8f6fd6a5ae]
@startsalt
{^"MHV View Oxygen Saturation Information (PGHD)"
You are viewing Oxygen Saturation information.

View Data as a Table or Graph

{#
Date | Time | Oximeter Reading (%) | Heart Rate | Respiration rate
2021-05-20 | 9:54 AM | 95 | 60 | 12
2021-05-20 | 10:04 AM | 98 | 76 | 18
}
}
@endsalt

PlantUML version 1.2021.7(Sun May 23 12:40:07 UTC 2021)
(GPL source distribution)
Java Runtime: Java(TM) SE Runtime Environment
JVM: Java HotSpot(TM) 64-Bit Server VM
Default Encoding: UTF-8
Language: en
Country: US
--></g></svg>