<?xml version="1.0" encoding="UTF-8" standalone="no"?><svg xmlns="http://www.w3.org/2000/svg" xmlns:xlink="http://www.w3.org/1999/xlink" contentScriptType="application/ecmascript" contentStyleType="text/css" height="220px" preserveAspectRatio="none" style="width:401px;height:220px;" version="1.1" viewBox="0 0 401 220" width="401px" zoomAndPan="magnify"><defs><filter height="300%" id="flc0d64l4r5cq" width="300%" x="-1" y="-1"><feGaussianBlur result="blurOut" stdDeviation="2.0"/><feColorMatrix in="blurOut" result="blurOut2" type="matrix" values="0 0 0 0 0 0 0 0 0 0 0 0 0 0 0 0 0 0 .4 0"/><feOffset dx="4.0" dy="4.0" in="blurOut2" result="blurOut3"/><feBlend in="SourceGraphic" in2="blurOut3" mode="normal"/></filter></defs><g><!--MD5=[b0e5abbc8e2d1abae53e281e019b1316]
cluster FHIR Bluebutton Document Bundle--><polygon fill="#DDDDDD" filter="url(#flc0d64l4r5cq)" points="16,6,301,6,308,28.2969,384,28.2969,384,213,16,213,16,6" style="stroke:#000000;stroke-width:1.5;"/><line style="stroke:#000000;stroke-width:1.5;" x1="16" x2="308" y1="28.2969" y2="28.2969"/><text fill="#000000" font-family="sans-serif" font-size="14" font-weight="bold" lengthAdjust="spacingAndGlyphs" textLength="279" x="20" y="20.9951">FHIR Bluebutton Document Bundle</text><!--MD5=[251454e98c15f29849fb35b1904d0020]
class Composition--><rect fill="#FEFECE" filter="url(#flc0d64l4r5cq)" height="48" id="Composition" style="stroke:#A80036;stroke-width:1.5;" width="107" x="130.5" y="41"/><ellipse cx="145.5" cy="57" fill="#ADD1B2" rx="11" ry="11" style="stroke:#A80036;stroke-width:1.0;"/><path d="M147.8438,52.6719 C146.9063,52.2344 146.3125,52.0938 145.4375,52.0938 C142.8125,52.0938 140.8125,54.1719 140.8125,56.8906 L140.8125,58.0156 C140.8125,60.5938 142.9219,62.4844 145.8125,62.4844 C147.0313,62.4844 148.1875,62.1875 148.9375,61.6406 C149.5156,61.2344 149.8438,60.7813 149.8438,60.3906 C149.8438,59.9375 149.4531,59.5469 148.9844,59.5469 C148.7656,59.5469 148.5625,59.625 148.375,59.8125 C147.9219,60.2969 147.9219,60.2969 147.7344,60.3906 C147.3125,60.6563 146.625,60.7813 145.8594,60.7813 C143.8125,60.7813 142.5156,59.6875 142.5156,57.9844 L142.5156,56.8906 C142.5156,55.1094 143.7656,53.7969 145.5,53.7969 C146.0781,53.7969 146.6875,53.9531 147.1563,54.2031 C147.6406,54.4844 147.8125,54.7031 147.9063,55.1094 C147.9688,55.5156 148,55.6406 148.1406,55.7656 C148.2813,55.9063 148.5156,56.0156 148.7344,56.0156 C149,56.0156 149.2656,55.875 149.4375,55.6563 C149.5469,55.5 149.5781,55.3125 149.5781,54.8906 L149.5781,53.4688 C149.5781,53.0313 149.5625,52.9063 149.4688,52.75 C149.3125,52.4844 149.0313,52.3438 148.7344,52.3438 C148.4375,52.3438 148.2344,52.4375 148.0156,52.75 L147.8438,52.6719 Z " fill="#000000"/><text fill="#000000" font-family="sans-serif" font-size="12" lengthAdjust="spacingAndGlyphs" textLength="75" x="159.5" y="61.1543">Composition</text><line style="stroke:#A80036;stroke-width:1.5;" x1="131.5" x2="236.5" y1="73" y2="73"/><line style="stroke:#A80036;stroke-width:1.5;" x1="131.5" x2="236.5" y1="81" y2="81"/><!--MD5=[9dd4eaa2771a2ff8dbee15cc1e732cab]
class Patient--><rect fill="#FEFECE" filter="url(#flc0d64l4r5cq)" height="48" id="Patient" style="stroke:#A80036;stroke-width:1.5;" width="71" x="32.5" y="149"/><ellipse cx="47.5" cy="165" fill="#ADD1B2" rx="11" ry="11" style="stroke:#A80036;stroke-width:1.0;"/><path d="M49.8438,160.6719 C48.9063,160.2344 48.3125,160.0938 47.4375,160.0938 C44.8125,160.0938 42.8125,162.1719 42.8125,164.8906 L42.8125,166.0156 C42.8125,168.5938 44.9219,170.4844 47.8125,170.4844 C49.0313,170.4844 50.1875,170.1875 50.9375,169.6406 C51.5156,169.2344 51.8438,168.7813 51.8438,168.3906 C51.8438,167.9375 51.4531,167.5469 50.9844,167.5469 C50.7656,167.5469 50.5625,167.625 50.375,167.8125 C49.9219,168.2969 49.9219,168.2969 49.7344,168.3906 C49.3125,168.6563 48.625,168.7813 47.8594,168.7813 C45.8125,168.7813 44.5156,167.6875 44.5156,165.9844 L44.5156,164.8906 C44.5156,163.1094 45.7656,161.7969 47.5,161.7969 C48.0781,161.7969 48.6875,161.9531 49.1563,162.2031 C49.6406,162.4844 49.8125,162.7031 49.9063,163.1094 C49.9688,163.5156 50,163.6406 50.1406,163.7656 C50.2813,163.9063 50.5156,164.0156 50.7344,164.0156 C51,164.0156 51.2656,163.875 51.4375,163.6563 C51.5469,163.5 51.5781,163.3125 51.5781,162.8906 L51.5781,161.4688 C51.5781,161.0313 51.5625,160.9063 51.4688,160.75 C51.3125,160.4844 51.0313,160.3438 50.7344,160.3438 C50.4375,160.3438 50.2344,160.4375 50.0156,160.75 L49.8438,160.6719 Z " fill="#000000"/><text fill="#000000" font-family="sans-serif" font-size="12" lengthAdjust="spacingAndGlyphs" textLength="39" x="61.5" y="169.1543">Patient</text><line style="stroke:#A80036;stroke-width:1.5;" x1="33.5" x2="102.5" y1="181" y2="181"/><line style="stroke:#A80036;stroke-width:1.5;" x1="33.5" x2="102.5" y1="189" y2="189"/><!--MD5=[65b1bb947246ea4a8d735fc095353db2]
class VitalSigns--><rect fill="#FEFECE" filter="url(#flc0d64l4r5cq)" height="48" id="VitalSigns" style="stroke:#A80036;stroke-width:1.5;" width="90" x="139" y="149"/><ellipse cx="154" cy="165" fill="#ADD1B2" rx="11" ry="11" style="stroke:#A80036;stroke-width:1.0;"/><path d="M156.3438,160.6719 C155.4063,160.2344 154.8125,160.0938 153.9375,160.0938 C151.3125,160.0938 149.3125,162.1719 149.3125,164.8906 L149.3125,166.0156 C149.3125,168.5938 151.4219,170.4844 154.3125,170.4844 C155.5313,170.4844 156.6875,170.1875 157.4375,169.6406 C158.0156,169.2344 158.3438,168.7813 158.3438,168.3906 C158.3438,167.9375 157.9531,167.5469 157.4844,167.5469 C157.2656,167.5469 157.0625,167.625 156.875,167.8125 C156.4219,168.2969 156.4219,168.2969 156.2344,168.3906 C155.8125,168.6563 155.125,168.7813 154.3594,168.7813 C152.3125,168.7813 151.0156,167.6875 151.0156,165.9844 L151.0156,164.8906 C151.0156,163.1094 152.2656,161.7969 154,161.7969 C154.5781,161.7969 155.1875,161.9531 155.6563,162.2031 C156.1406,162.4844 156.3125,162.7031 156.4063,163.1094 C156.4688,163.5156 156.5,163.6406 156.6406,163.7656 C156.7813,163.9063 157.0156,164.0156 157.2344,164.0156 C157.5,164.0156 157.7656,163.875 157.9375,163.6563 C158.0469,163.5 158.0781,163.3125 158.0781,162.8906 L158.0781,161.4688 C158.0781,161.0313 158.0625,160.9063 157.9688,160.75 C157.8125,160.4844 157.5313,160.3438 157.2344,160.3438 C156.9375,160.3438 156.7344,160.4375 156.5156,160.75 L156.3438,160.6719 Z " fill="#000000"/><text fill="#000000" font-family="sans-serif" font-size="12" lengthAdjust="spacingAndGlyphs" textLength="58" x="168" y="169.1543">VitalSigns</text><line style="stroke:#A80036;stroke-width:1.5;" x1="140" x2="228" y1="181" y2="181"/><line style="stroke:#A80036;stroke-width:1.5;" x1="140" x2="228" y1="189" y2="189"/><!--MD5=[9a962b2d8b4eb22f1781dc36d81c97da]
class Medications--><rect fill="#FEFECE" filter="url(#flc0d64l4r5cq)" height="48" id="Medications" style="stroke:#A80036;stroke-width:1.5;" width="104" x="264" y="149"/><ellipse cx="279" cy="165" fill="#ADD1B2" rx="11" ry="11" style="stroke:#A80036;stroke-width:1.0;"/><path d="M281.3438,160.6719 C280.4063,160.2344 279.8125,160.0938 278.9375,160.0938 C276.3125,160.0938 274.3125,162.1719 274.3125,164.8906 L274.3125,166.0156 C274.3125,168.5938 276.4219,170.4844 279.3125,170.4844 C280.5313,170.4844 281.6875,170.1875 282.4375,169.6406 C283.0156,169.2344 283.3438,168.7813 283.3438,168.3906 C283.3438,167.9375 282.9531,167.5469 282.4844,167.5469 C282.2656,167.5469 282.0625,167.625 281.875,167.8125 C281.4219,168.2969 281.4219,168.2969 281.2344,168.3906 C280.8125,168.6563 280.125,168.7813 279.3594,168.7813 C277.3125,168.7813 276.0156,167.6875 276.0156,165.9844 L276.0156,164.8906 C276.0156,163.1094 277.2656,161.7969 279,161.7969 C279.5781,161.7969 280.1875,161.9531 280.6563,162.2031 C281.1406,162.4844 281.3125,162.7031 281.4063,163.1094 C281.4688,163.5156 281.5,163.6406 281.6406,163.7656 C281.7813,163.9063 282.0156,164.0156 282.2344,164.0156 C282.5,164.0156 282.7656,163.875 282.9375,163.6563 C283.0469,163.5 283.0781,163.3125 283.0781,162.8906 L283.0781,161.4688 C283.0781,161.0313 283.0625,160.9063 282.9688,160.75 C282.8125,160.4844 282.5313,160.3438 282.2344,160.3438 C281.9375,160.3438 281.7344,160.4375 281.5156,160.75 L281.3438,160.6719 Z " fill="#000000"/><text fill="#000000" font-family="sans-serif" font-size="12" lengthAdjust="spacingAndGlyphs" textLength="72" x="293" y="169.1543">Medications</text><line style="stroke:#A80036;stroke-width:1.5;" x1="265" x2="367" y1="181" y2="181"/><line style="stroke:#A80036;stroke-width:1.5;" x1="265" x2="367" y1="189" y2="189"/><!--MD5=[4296885d4dd788fa2162b781b9edba72]
link Composition to Patient--><path codeLine="4" d="M158.83,89 C140.714,105.555 116.226,127.931 97.2417,145.2791 " fill="none" id="Composition-to-Patient" style="stroke:#A80036;stroke-width:1.0;"/><polygon fill="#A80036" points="93.5217,148.6784,102.8639,145.56,97.2127,145.3055,97.4672,139.6544,93.5217,148.6784" style="stroke:#A80036;stroke-width:1.0;"/><text fill="#000000" font-family="sans-serif" font-size="13" lengthAdjust="spacingAndGlyphs" textLength="24" x="72.8176" y="138.005">1..1</text><!--MD5=[1f159eb6539adabc0237f4d365af956c]
link Composition to VitalSigns--><path codeLine="5" d="M184,89 C184,105.003 184,126.446 184,143.528 " fill="none" id="Composition-to-VitalSigns" style="stroke:#A80036;stroke-width:1.0;"/><polygon fill="#A80036" points="184,148.6784,188,139.6784,184,143.6784,180,139.6784,184,148.6784" style="stroke:#A80036;stroke-width:1.0;"/><text fill="#000000" font-family="sans-serif" font-size="13" lengthAdjust="spacingAndGlyphs" textLength="23" x="158.1969" y="138.005">0..*</text><!--MD5=[ac777d26365e9bd6519e494d48968c5f]
link Composition to Medications--><path codeLine="6" d="M212.642,89 C233.343,105.624 261.354,128.118 282.995,145.4957 " fill="none" id="Composition-to-Medications" style="stroke:#A80036;stroke-width:1.0;"/><polygon fill="#A80036" points="286.958,148.6784,282.4442,139.9248,283.0591,145.5481,277.4358,146.163,286.958,148.6784" style="stroke:#A80036;stroke-width:1.0;"/><text fill="#000000" font-family="sans-serif" font-size="13" lengthAdjust="spacingAndGlyphs" textLength="23" x="254.0759" y="138.005">0..*</text><!--MD5=[843d2c29e281799cbb9451fb752a3247]
@startuml
package "FHIR Bluebutton Document Bundle" #DDDDDD {


  Composition - -> "1..1" Patient
  Composition - -> "0..*" VitalSigns
  Composition - -> "0..*" Medications

}
@enduml

PlantUML version 1.2020.21beta3(Unknown compile time)
(GPL source distribution)
Java Runtime: Java(TM) SE Runtime Environment
JVM: Java HotSpot(TM) 64-Bit Server VM
Default Encoding: UTF-8
Language: en
Country: US
--></g></svg>