<?xml version="1.0" encoding="UTF-8" standalone="no"?><svg xmlns="http://www.w3.org/2000/svg" xmlns:xlink="http://www.w3.org/1999/xlink" contentScriptType="application/ecmascript" contentStyleType="text/css" height="254px" preserveAspectRatio="none" style="width:672px;height:254px;" version="1.1" viewBox="0 0 672 254" width="672px" zoomAndPan="magnify"><defs/><g><text fill="#000000" font-family="sans-serif" font-size="12" lengthAdjust="spacingAndGlyphs" textLength="65" x="6" y="31.1074">Medication</text><text fill="#000000" font-family="sans-serif" font-size="12" lengthAdjust="spacingAndGlyphs" textLength="163" x="133" y="31.1074">medication name (RxNorm)</text><line style="stroke:#000000;stroke-width:1.0;" x1="131" x2="350" y1="33.9375" y2="33.9375"/><line style="stroke:#000000;stroke-width:1.0;" x1="131" x2="131" y1="30.9375" y2="32.9375"/><line style="stroke:#000000;stroke-width:1.0;" x1="350" x2="350" y1="30.9375" y2="32.9375"/><text fill="#000000" font-family="sans-serif" font-size="12" lengthAdjust="spacingAndGlyphs" textLength="44" x="6" y="49.0762">Reason</text><text fill="#000000" font-family="sans-serif" font-size="12" lengthAdjust="spacingAndGlyphs" textLength="103" x="133" y="49.0762">reason for taking</text><line style="stroke:#000000;stroke-width:1.0;" x1="131" x2="270" y1="51.9063" y2="51.9063"/><line style="stroke:#000000;stroke-width:1.0;" x1="131" x2="131" y1="48.9063" y2="50.9063"/><line style="stroke:#000000;stroke-width:1.0;" x1="270" x2="270" y1="48.9063" y2="50.9063"/><text fill="#000000" font-family="sans-serif" font-size="12" lengthAdjust="spacingAndGlyphs" textLength="51" x="6" y="67.0449">Strength</text><text fill="#000000" font-family="sans-serif" font-size="12" lengthAdjust="spacingAndGlyphs" textLength="125" x="133" y="67.0449">strength per dosage</text><line style="stroke:#000000;stroke-width:1.0;" x1="131" x2="286" y1="69.875" y2="69.875"/><line style="stroke:#000000;stroke-width:1.0;" x1="131" x2="131" y1="66.875" y2="68.875"/><line style="stroke:#000000;stroke-width:1.0;" x1="286" x2="286" y1="66.875" y2="68.875"/><text fill="#000000" font-family="sans-serif" font-size="12" lengthAdjust="spacingAndGlyphs" textLength="49" x="6" y="85.0137">Quantity</text><rect fill="#EEEEEE" height="16.9688" style="stroke:#000000;stroke-width:1.0;" width="183" x="130" y="73.875"/><text fill="#000000" font-family="sans-serif" font-size="12" lengthAdjust="spacingAndGlyphs" textLength="114" x="132" y="87.0137">0.5, 1, 2, 3, 4, 5, 6</text><line style="stroke:#000000;stroke-width:1.0;" x1="302" x2="302" y1="73.875" y2="90.8438"/><polygon fill="#000000" points="305,79.875,311,79.875,308,85.8438" style="stroke:#000000;stroke-width:1.0;"/><text fill="#000000" font-family="sans-serif" font-size="12" lengthAdjust="spacingAndGlyphs" textLength="64" x="6" y="104.9824">Frequency</text><rect fill="#EEEEEE" height="16.9688" style="stroke:#000000;stroke-width:1.0;" width="319" x="130" y="93.8438"/><text fill="#000000" font-family="sans-serif" font-size="12" lengthAdjust="spacingAndGlyphs" textLength="243" x="132" y="106.9824">per hour, per day, per week, per month</text><line style="stroke:#000000;stroke-width:1.0;" x1="438" x2="438" y1="93.8438" y2="110.8125"/><polygon fill="#000000" points="441,99.8438,447,99.8438,444,105.8125" style="stroke:#000000;stroke-width:1.0;"/><text fill="#000000" font-family="sans-serif" font-size="12" lengthAdjust="spacingAndGlyphs" textLength="45" x="6" y="124.9512">Method</text><rect fill="#EEEEEE" height="16.9688" style="stroke:#000000;stroke-width:1.0;" width="527" x="130" y="113.8125"/><text fill="#000000" font-family="sans-serif" font-size="12" lengthAdjust="spacingAndGlyphs" textLength="376" x="132" y="126.9512">Oral, rectal, transdermal, topical, intramucscuolar, intravenous</text><line style="stroke:#000000;stroke-width:1.0;" x1="646" x2="646" y1="113.8125" y2="130.7813"/><polygon fill="#000000" points="649,119.8125,655,119.8125,652,125.7813" style="stroke:#000000;stroke-width:1.0;"/><text fill="#000000" font-family="sans-serif" font-size="12" lengthAdjust="spacingAndGlyphs" textLength="122" x="6" y="144.9199">Prescription Number</text><text fill="#000000" font-family="sans-serif" font-size="12" lengthAdjust="spacingAndGlyphs" textLength="40" x="133" y="144.9199">RxNum</text><line style="stroke:#000000;stroke-width:1.0;" x1="131" x2="182" y1="147.75" y2="147.75"/><line style="stroke:#000000;stroke-width:1.0;" x1="131" x2="131" y1="144.75" y2="146.75"/><line style="stroke:#000000;stroke-width:1.0;" x1="182" x2="182" y1="144.75" y2="146.75"/><text fill="#000000" font-family="sans-serif" font-size="12" lengthAdjust="spacingAndGlyphs" textLength="48" x="6" y="162.8887">Clinician</text><text fill="#000000" font-family="sans-serif" font-size="12" lengthAdjust="spacingAndGlyphs" textLength="96" x="133" y="162.8887">who prescribed</text><line style="stroke:#000000;stroke-width:1.0;" x1="131" x2="246" y1="165.7188" y2="165.7188"/><line style="stroke:#000000;stroke-width:1.0;" x1="131" x2="131" y1="162.7188" y2="164.7188"/><line style="stroke:#000000;stroke-width:1.0;" x1="246" x2="246" y1="162.7188" y2="164.7188"/><text fill="#000000" font-family="sans-serif" font-size="12" lengthAdjust="spacingAndGlyphs" textLength="57" x="6" y="180.8574">Pharmacy</text><text fill="#000000" font-family="sans-serif" font-size="12" lengthAdjust="spacingAndGlyphs" textLength="59" x="133" y="180.8574">pharmacy</text><line style="stroke:#000000;stroke-width:1.0;" x1="131" x2="198" y1="183.6875" y2="183.6875"/><line style="stroke:#000000;stroke-width:1.0;" x1="131" x2="131" y1="180.6875" y2="182.6875"/><line style="stroke:#000000;stroke-width:1.0;" x1="198" x2="198" y1="180.6875" y2="182.6875"/><text fill="#000000" font-family="sans-serif" font-size="12" lengthAdjust="spacingAndGlyphs" textLength="113" x="6" y="198.8262">Phone of Pharmacy</text><text fill="#000000" font-family="sans-serif" font-size="12" lengthAdjust="spacingAndGlyphs" textLength="101" x="133" y="198.8262">pharmacy phone</text><line style="stroke:#000000;stroke-width:1.0;" x1="131" x2="246" y1="201.6563" y2="201.6563"/><line style="stroke:#000000;stroke-width:1.0;" x1="131" x2="131" y1="198.6563" y2="200.6563"/><line style="stroke:#000000;stroke-width:1.0;" x1="246" x2="246" y1="198.6563" y2="200.6563"/><text fill="#000000" font-family="sans-serif" font-size="12" lengthAdjust="spacingAndGlyphs" textLength="35" x="6" y="216.7949">Notes</text><text fill="#000000" font-family="sans-serif" font-size="12" lengthAdjust="spacingAndGlyphs" textLength="34" x="133" y="216.7949">notes</text><line style="stroke:#000000;stroke-width:1.0;" x1="131" x2="174" y1="219.625" y2="219.625"/><line style="stroke:#000000;stroke-width:1.0;" x1="131" x2="131" y1="216.625" y2="218.625"/><line style="stroke:#000000;stroke-width:1.0;" x1="174" x2="174" y1="216.625" y2="218.625"/><rect fill="#EEEEEE" height="17.9688" rx="5" ry="5" style="stroke:#000000;stroke-width:2.5;" width="60" x="8.5" y="226.125"/><text fill="#000000" font-family="sans-serif" font-size="12" lengthAdjust="spacingAndGlyphs" textLength="18" x="29.5" y="239.2637">OK</text><rect fill="#EEEEEE" height="17.9688" rx="5" ry="5" style="stroke:#000000;stroke-width:2.5;" width="52" x="132.5" y="226.125"/><text fill="#000000" font-family="sans-serif" font-size="12" lengthAdjust="spacingAndGlyphs" textLength="40" x="138.5" y="239.2637">Cancel</text><line style="stroke:#000000;stroke-width:1.0;" x1="5" x2="129" y1="11.9844" y2="11.9844"/><line style="stroke:#000000;stroke-width:1.0;" x1="129" x2="659" y1="11.9844" y2="11.9844"/><line style="stroke:#000000;stroke-width:1.0;" x1="5" x2="129" y1="247.5938" y2="247.5938"/><line style="stroke:#000000;stroke-width:1.0;" x1="129" x2="659" y1="247.5938" y2="247.5938"/><line style="stroke:#000000;stroke-width:1.0;" x1="5" x2="5" y1="11.9844" y2="36.9375"/><line style="stroke:#000000;stroke-width:1.0;" x1="659" x2="659" y1="54.9063" y2="72.875"/><line style="stroke:#000000;stroke-width:1.0;" x1="659" x2="659" y1="11.9844" y2="36.9375"/><line style="stroke:#000000;stroke-width:1.0;" x1="5" x2="5" y1="222.625" y2="247.5938"/><line style="stroke:#000000;stroke-width:1.0;" x1="5" x2="5" y1="186.6875" y2="204.6563"/><line style="stroke:#000000;stroke-width:1.0;" x1="659" x2="659" y1="222.625" y2="247.5938"/><line style="stroke:#000000;stroke-width:1.0;" x1="5" x2="5" y1="150.75" y2="168.7188"/><line style="stroke:#000000;stroke-width:1.0;" x1="659" x2="659" y1="186.6875" y2="204.6563"/><line style="stroke:#000000;stroke-width:1.0;" x1="5" x2="5" y1="112.8125" y2="132.7813"/><line style="stroke:#000000;stroke-width:1.0;" x1="659" x2="659" y1="150.75" y2="168.7188"/><line style="stroke:#000000;stroke-width:1.0;" x1="5" x2="5" y1="72.875" y2="92.8438"/><line style="stroke:#000000;stroke-width:1.0;" x1="659" x2="659" y1="112.8125" y2="132.7813"/><line style="stroke:#000000;stroke-width:1.0;" x1="5" x2="5" y1="36.9375" y2="54.9063"/><line style="stroke:#000000;stroke-width:1.0;" x1="659" x2="659" y1="72.875" y2="92.8438"/><line style="stroke:#000000;stroke-width:1.0;" x1="659" x2="659" y1="36.9375" y2="54.9063"/><line style="stroke:#000000;stroke-width:1.0;" x1="5" x2="5" y1="204.6563" y2="222.625"/><line style="stroke:#000000;stroke-width:1.0;" x1="5" x2="5" y1="168.7188" y2="186.6875"/><line style="stroke:#000000;stroke-width:1.0;" x1="659" x2="659" y1="204.6563" y2="222.625"/><line style="stroke:#000000;stroke-width:1.0;" x1="5" x2="5" y1="132.7813" y2="150.75"/><line style="stroke:#000000;stroke-width:1.0;" x1="659" x2="659" y1="168.7188" y2="186.6875"/><line style="stroke:#000000;stroke-width:1.0;" x1="5" x2="5" y1="92.8438" y2="112.8125"/><line style="stroke:#000000;stroke-width:1.0;" x1="659" x2="659" y1="132.7813" y2="150.75"/><line style="stroke:#000000;stroke-width:1.0;" x1="5" x2="5" y1="54.9063" y2="72.875"/><line style="stroke:#000000;stroke-width:1.0;" x1="659" x2="659" y1="92.8438" y2="112.8125"/><rect fill="#FFFFFF" height="13.9688" style="stroke:#FFFFFF;stroke-width:1.0;" width="113" x="11" y="5"/><text fill="#000000" font-family="sans-serif" font-size="12" lengthAdjust="spacingAndGlyphs" textLength="113" x="11" y="16.1387">My Medication box</text><!--MD5=[9de44cafef0a5ce1916b6f01ed449a36]
@startsalt
{^"My Medication box"
  Medication| "medication name (RxNorm)   "
  Reason| "reason for taking"
  Strength| "strength per dosage"
  Quantity| ^0.5, 1, 2, 3, 4, 5, 6^
  Frequency| ^per hour, per day, per week, per month^
  Method| ^Oral, rectal, transdermal, topical, intramucscuolar, intravenous^
  Prescription Number| "RxNum "
  Clinician| "who prescribed"
  Pharmacy| "pharmacy"
  Phone of Pharmacy| "pharmacy phone"
  Notes| "notes"

  [  OK   ] | [Cancel]  
}
@endsalt

PlantUML version 1.2020.21beta3(Unknown compile time)
(GPL source distribution)
Java Runtime: Java(TM) SE Runtime Environment
JVM: Java HotSpot(TM) 64-Bit Server VM
Default Encoding: UTF-8
Language: en
Country: US
--></g></svg>