<?xml version="1.0" encoding="UTF-8" standalone="no"?><svg xmlns="http://www.w3.org/2000/svg" xmlns:xlink="http://www.w3.org/1999/xlink" contentScriptType="application/ecmascript" contentStyleType="text/css" height="326px" preserveAspectRatio="none" style="width:825px;height:326px;" version="1.1" viewBox="0 0 825 326" width="825px" zoomAndPan="magnify"><defs/><g><text fill="#000000" font-family="sans-serif" font-size="12" lengthAdjust="spacingAndGlyphs" textLength="103" x="6" y="31.1074">Medication Name</text><text fill="#000000" font-family="sans-serif" font-size="12" lengthAdjust="spacingAndGlyphs" textLength="163" x="174" y="31.1074">medication name (RxNorm)</text><line style="stroke:#000000;stroke-width:1.0;" x1="172" x2="391" y1="33.9375" y2="33.9375"/><line style="stroke:#000000;stroke-width:1.0;" x1="172" x2="172" y1="30.9375" y2="32.9375"/><line style="stroke:#000000;stroke-width:1.0;" x1="391" x2="391" y1="30.9375" y2="32.9375"/><text fill="#000000" font-family="sans-serif" font-size="12" lengthAdjust="spacingAndGlyphs" textLength="44" x="6" y="49.0762">Reason</text><text fill="#000000" font-family="sans-serif" font-size="12" lengthAdjust="spacingAndGlyphs" textLength="103" x="174" y="49.0762">reason for taking</text><line style="stroke:#000000;stroke-width:1.0;" x1="172" x2="311" y1="51.9063" y2="51.9063"/><line style="stroke:#000000;stroke-width:1.0;" x1="172" x2="172" y1="48.9063" y2="50.9063"/><line style="stroke:#000000;stroke-width:1.0;" x1="311" x2="311" y1="48.9063" y2="50.9063"/><text fill="#000000" font-family="sans-serif" font-size="12" lengthAdjust="spacingAndGlyphs" textLength="51" x="6" y="67.0449">Strength</text><text fill="#000000" font-family="sans-serif" font-size="12" lengthAdjust="spacingAndGlyphs" textLength="125" x="174" y="67.0449">strength per dosage</text><line style="stroke:#000000;stroke-width:1.0;" x1="172" x2="327" y1="69.875" y2="69.875"/><line style="stroke:#000000;stroke-width:1.0;" x1="172" x2="172" y1="66.875" y2="68.875"/><line style="stroke:#000000;stroke-width:1.0;" x1="327" x2="327" y1="66.875" y2="68.875"/><text fill="#000000" font-family="sans-serif" font-size="12" lengthAdjust="spacingAndGlyphs" textLength="109" x="6" y="85.0137">Quantity per dose</text><rect fill="#EEEEEE" height="16.9688" style="stroke:#000000;stroke-width:1.0;" width="183" x="171" y="73.875"/><text fill="#000000" font-family="sans-serif" font-size="12" lengthAdjust="spacingAndGlyphs" textLength="114" x="173" y="87.0137">0.5, 1, 2, 3, 4, 5, 6</text><line style="stroke:#000000;stroke-width:1.0;" x1="343" x2="343" y1="73.875" y2="90.8438"/><polygon fill="#000000" points="346,79.875,352,79.875,349,85.8438" style="stroke:#000000;stroke-width:1.0;"/><text fill="#000000" font-family="sans-serif" font-size="12" lengthAdjust="spacingAndGlyphs" textLength="126" x="6" y="104.9824">Frequency of a dose</text><rect fill="#EEEEEE" height="16.9688" style="stroke:#000000;stroke-width:1.0;" width="639" x="171" y="93.8438"/><text fill="#000000" font-family="sans-serif" font-size="12" lengthAdjust="spacingAndGlyphs" textLength="470" x="173" y="106.9824">once a day, twice a day, three a day, four a day, once a week, ... , as needed</text><line style="stroke:#000000;stroke-width:1.0;" x1="799" x2="799" y1="93.8438" y2="110.8125"/><polygon fill="#000000" points="802,99.8438,808,99.8438,805,105.8125" style="stroke:#000000;stroke-width:1.0;"/><text fill="#000000" font-family="sans-serif" font-size="12" lengthAdjust="spacingAndGlyphs" textLength="107" x="6" y="124.9512">Method of a dose</text><rect fill="#EEEEEE" height="16.9688" style="stroke:#000000;stroke-width:1.0;" width="527" x="171" y="113.8125"/><text fill="#000000" font-family="sans-serif" font-size="12" lengthAdjust="spacingAndGlyphs" textLength="376" x="173" y="126.9512">Oral, rectal, transdermal, topical, intramucscuolar, intravenous</text><line style="stroke:#000000;stroke-width:1.0;" x1="687" x2="687" y1="113.8125" y2="130.7813"/><polygon fill="#000000" points="690,119.8125,696,119.8125,693,125.7813" style="stroke:#000000;stroke-width:1.0;"/><text fill="#000000" font-family="sans-serif" font-size="12" lengthAdjust="spacingAndGlyphs" textLength="143" x="26" y="144.9199">Side affects of the drug</text><rect fill="none" height="10" style="stroke:#000000;stroke-width:1.5;" width="10" x="8" y="135.7656"/><text fill="#000000" font-family="sans-serif" font-size="12" lengthAdjust="spacingAndGlyphs" textLength="60" x="6" y="160.8887">Start Date</text><rect fill="#EEEEEE" height="16.9688" style="stroke:#000000;stroke-width:1.0;" width="47" x="171" y="149.75"/><text fill="#000000" font-family="sans-serif" font-size="12" lengthAdjust="spacingAndGlyphs" textLength="27" x="173" y="162.8887">date</text><line style="stroke:#000000;stroke-width:1.0;" x1="207" x2="207" y1="149.75" y2="166.7188"/><polygon fill="#000000" points="210,155.75,216,155.75,213,161.7188" style="stroke:#000000;stroke-width:1.0;"/><text fill="#000000" font-family="sans-serif" font-size="12" lengthAdjust="spacingAndGlyphs" textLength="60" x="6" y="180.8574">Stop Date</text><rect fill="#EEEEEE" height="16.9688" style="stroke:#000000;stroke-width:1.0;" width="47" x="171" y="169.7188"/><text fill="#000000" font-family="sans-serif" font-size="12" lengthAdjust="spacingAndGlyphs" textLength="27" x="173" y="182.8574">date</text><line style="stroke:#000000;stroke-width:1.0;" x1="207" x2="207" y1="169.7188" y2="186.6875"/><polygon fill="#000000" points="210,175.7188,216,175.7188,213,181.6875" style="stroke:#000000;stroke-width:1.0;"/><text fill="#000000" font-family="sans-serif" font-size="12" lengthAdjust="spacingAndGlyphs" textLength="97" x="26" y="200.8262">Currently Taking</text><rect fill="none" height="10" style="stroke:#000000;stroke-width:1.5;" width="10" x="8" y="191.6719"/><text fill="#000000" font-family="sans-serif" font-size="12" lengthAdjust="spacingAndGlyphs" textLength="66" x="6" y="216.7949">RX Number</text><text fill="#000000" font-family="sans-serif" font-size="12" lengthAdjust="spacingAndGlyphs" textLength="124" x="174" y="216.7949">prescription Number</text><line style="stroke:#000000;stroke-width:1.0;" x1="172" x2="335" y1="219.625" y2="219.625"/><line style="stroke:#000000;stroke-width:1.0;" x1="172" x2="172" y1="216.625" y2="218.625"/><line style="stroke:#000000;stroke-width:1.0;" x1="335" x2="335" y1="216.625" y2="218.625"/><text fill="#000000" font-family="sans-serif" font-size="12" lengthAdjust="spacingAndGlyphs" textLength="50" x="6" y="234.7637">Provider</text><text fill="#000000" font-family="sans-serif" font-size="12" lengthAdjust="spacingAndGlyphs" textLength="96" x="174" y="234.7637">who prescribed</text><line style="stroke:#000000;stroke-width:1.0;" x1="172" x2="287" y1="237.5938" y2="237.5938"/><line style="stroke:#000000;stroke-width:1.0;" x1="172" x2="172" y1="234.5938" y2="236.5938"/><line style="stroke:#000000;stroke-width:1.0;" x1="287" x2="287" y1="234.5938" y2="236.5938"/><text fill="#000000" font-family="sans-serif" font-size="12" lengthAdjust="spacingAndGlyphs" textLength="57" x="6" y="252.7324">Pharmacy</text><text fill="#000000" font-family="sans-serif" font-size="12" lengthAdjust="spacingAndGlyphs" textLength="59" x="174" y="252.7324">pharmacy</text><line style="stroke:#000000;stroke-width:1.0;" x1="172" x2="239" y1="255.5625" y2="255.5625"/><line style="stroke:#000000;stroke-width:1.0;" x1="172" x2="172" y1="252.5625" y2="254.5625"/><line style="stroke:#000000;stroke-width:1.0;" x1="239" x2="239" y1="252.5625" y2="254.5625"/><text fill="#000000" font-family="sans-serif" font-size="12" lengthAdjust="spacingAndGlyphs" textLength="113" x="6" y="270.7012">Phone of Pharmacy</text><text fill="#000000" font-family="sans-serif" font-size="12" lengthAdjust="spacingAndGlyphs" textLength="101" x="174" y="270.7012">pharmacy phone</text><line style="stroke:#000000;stroke-width:1.0;" x1="172" x2="287" y1="273.5313" y2="273.5313"/><line style="stroke:#000000;stroke-width:1.0;" x1="172" x2="172" y1="270.5313" y2="272.5313"/><line style="stroke:#000000;stroke-width:1.0;" x1="287" x2="287" y1="270.5313" y2="272.5313"/><text fill="#000000" font-family="sans-serif" font-size="12" lengthAdjust="spacingAndGlyphs" textLength="35" x="6" y="288.6699">Notes</text><text fill="#000000" font-family="sans-serif" font-size="12" lengthAdjust="spacingAndGlyphs" textLength="63" x="174" y="288.6699">comments</text><line style="stroke:#000000;stroke-width:1.0;" x1="172" x2="239" y1="291.5" y2="291.5"/><line style="stroke:#000000;stroke-width:1.0;" x1="172" x2="172" y1="288.5" y2="290.5"/><line style="stroke:#000000;stroke-width:1.0;" x1="239" x2="239" y1="288.5" y2="290.5"/><rect fill="#EEEEEE" height="17.9688" rx="5" ry="5" style="stroke:#000000;stroke-width:2.5;" width="60" x="8.5" y="298"/><text fill="#000000" font-family="sans-serif" font-size="12" lengthAdjust="spacingAndGlyphs" textLength="18" x="29.5" y="311.1387">OK</text><rect fill="#EEEEEE" height="17.9688" rx="5" ry="5" style="stroke:#000000;stroke-width:2.5;" width="52" x="173.5" y="298"/><text fill="#000000" font-family="sans-serif" font-size="12" lengthAdjust="spacingAndGlyphs" textLength="40" x="179.5" y="311.1387">Cancel</text><line style="stroke:#000000;stroke-width:1.0;" x1="5" x2="170" y1="11.9844" y2="11.9844"/><line style="stroke:#000000;stroke-width:1.0;" x1="5" x2="170" y1="319.4688" y2="319.4688"/><line style="stroke:#000000;stroke-width:1.0;" x1="170" x2="812" y1="11.9844" y2="11.9844"/><line style="stroke:#000000;stroke-width:1.0;" x1="170" x2="812" y1="319.4688" y2="319.4688"/><line style="stroke:#000000;stroke-width:1.0;" x1="5" x2="5" y1="11.9844" y2="36.9375"/><line style="stroke:#000000;stroke-width:1.0;" x1="5" x2="5" y1="294.5" y2="319.4688"/><line style="stroke:#000000;stroke-width:1.0;" x1="812" x2="812" y1="11.9844" y2="36.9375"/><line style="stroke:#000000;stroke-width:1.0;" x1="812" x2="812" y1="294.5" y2="319.4688"/><line style="stroke:#000000;stroke-width:1.0;" x1="5" x2="5" y1="222.625" y2="240.5938"/><line style="stroke:#000000;stroke-width:1.0;" x1="812" x2="812" y1="222.625" y2="240.5938"/><line style="stroke:#000000;stroke-width:1.0;" x1="5" x2="5" y1="148.75" y2="168.7188"/><line style="stroke:#000000;stroke-width:1.0;" x1="812" x2="812" y1="148.75" y2="168.7188"/><line style="stroke:#000000;stroke-width:1.0;" x1="5" x2="5" y1="72.875" y2="92.8438"/><line style="stroke:#000000;stroke-width:1.0;" x1="812" x2="812" y1="72.875" y2="92.8438"/><line style="stroke:#000000;stroke-width:1.0;" x1="5" x2="5" y1="276.5313" y2="294.5"/><line style="stroke:#000000;stroke-width:1.0;" x1="812" x2="812" y1="276.5313" y2="294.5"/><line style="stroke:#000000;stroke-width:1.0;" x1="5" x2="5" y1="204.6563" y2="222.625"/><line style="stroke:#000000;stroke-width:1.0;" x1="812" x2="812" y1="204.6563" y2="222.625"/><line style="stroke:#000000;stroke-width:1.0;" x1="5" x2="5" y1="132.7813" y2="148.75"/><line style="stroke:#000000;stroke-width:1.0;" x1="812" x2="812" y1="132.7813" y2="148.75"/><line style="stroke:#000000;stroke-width:1.0;" x1="5" x2="5" y1="54.9063" y2="72.875"/><line style="stroke:#000000;stroke-width:1.0;" x1="812" x2="812" y1="54.9063" y2="72.875"/><line style="stroke:#000000;stroke-width:1.0;" x1="5" x2="5" y1="258.5625" y2="276.5313"/><line style="stroke:#000000;stroke-width:1.0;" x1="812" x2="812" y1="258.5625" y2="276.5313"/><line style="stroke:#000000;stroke-width:1.0;" x1="5" x2="5" y1="188.6875" y2="204.6563"/><line style="stroke:#000000;stroke-width:1.0;" x1="812" x2="812" y1="188.6875" y2="204.6563"/><line style="stroke:#000000;stroke-width:1.0;" x1="5" x2="5" y1="112.8125" y2="132.7813"/><line style="stroke:#000000;stroke-width:1.0;" x1="812" x2="812" y1="112.8125" y2="132.7813"/><line style="stroke:#000000;stroke-width:1.0;" x1="5" x2="5" y1="36.9375" y2="54.9063"/><line style="stroke:#000000;stroke-width:1.0;" x1="812" x2="812" y1="36.9375" y2="54.9063"/><line style="stroke:#000000;stroke-width:1.0;" x1="5" x2="5" y1="240.5938" y2="258.5625"/><line style="stroke:#000000;stroke-width:1.0;" x1="812" x2="812" y1="240.5938" y2="258.5625"/><line style="stroke:#000000;stroke-width:1.0;" x1="5" x2="5" y1="168.7188" y2="188.6875"/><line style="stroke:#000000;stroke-width:1.0;" x1="812" x2="812" y1="168.7188" y2="188.6875"/><line style="stroke:#000000;stroke-width:1.0;" x1="5" x2="5" y1="92.8438" y2="112.8125"/><line style="stroke:#000000;stroke-width:1.0;" x1="812" x2="812" y1="92.8438" y2="112.8125"/><rect fill="#FFFFFF" height="13.9688" style="stroke:#FFFFFF;stroke-width:1.0;" width="113" x="11" y="5"/><text fill="#000000" font-family="sans-serif" font-size="12" lengthAdjust="spacingAndGlyphs" textLength="113" x="11" y="16.1387">My Medication box</text><!--MD5=[cb8182de63c4d37897fa2672171b36ca]
@startsalt
{^"My Medication box"
  Medication Name| "medication name (RxNorm)   "
  Reason| "reason for taking"
  Strength| "strength per dosage"
  Quantity per dose| ^0.5, 1, 2, 3, 4, 5, 6^
  Frequency of a dose| ^once a day, twice a day, three a day, four a day, once a week, ... , as needed^
  Method of a dose| ^Oral, rectal, transdermal, topical, intramucscuolar, intravenous^
  [] Side affects of the drug
  Start Date| ^date^
  Stop Date| ^date^
  [] Currently Taking
  RX Number| "prescription Number "
  Provider | "who prescribed"
  Pharmacy| "pharmacy"
  Phone of Pharmacy| "pharmacy phone"
  Notes| "comments"

  [  OK   ] | [Cancel]  
}
@endsalt

PlantUML version 1.2020.24beta4(Unknown compile time)
(GPL source distribution)
Java Runtime: Java(TM) SE Runtime Environment
JVM: Java HotSpot(TM) 64-Bit Server VM
Default Encoding: UTF-8
Language: en
Country: US
--></g></svg>