<?xml version="1.0" encoding="UTF-8" standalone="no"?><svg xmlns="http://www.w3.org/2000/svg" xmlns:xlink="http://www.w3.org/1999/xlink" contentScriptType="application/ecmascript" contentStyleType="text/css" height="164px" preserveAspectRatio="none" style="width:621px;height:164px;" version="1.1" viewBox="0 0 621 164" width="621px" zoomAndPan="magnify"><defs/><g><text fill="#000000" font-family="sans-serif" font-size="12" lengthAdjust="spacing" textLength="46" x="6" y="31.1074">Allergy:</text><text fill="#000000" font-family="sans-serif" font-size="12" lengthAdjust="spacing" textLength="154" x="92" y="31.1074">name of allergy (RxNorm)</text><line style="stroke:#000000;stroke-width:1.0;" x1="90" x2="309" y1="33.9375" y2="33.9375"/><line style="stroke:#000000;stroke-width:1.0;" x1="90" x2="90" y1="30.9375" y2="32.9375"/><line style="stroke:#000000;stroke-width:1.0;" x1="309" x2="309" y1="30.9375" y2="32.9375"/><text fill="#000000" font-family="sans-serif" font-size="12" lengthAdjust="spacing" textLength="32" x="6" y="49.0762">Date:</text><rect fill="#EEEEEE" height="16.9688" style="stroke:#000000;stroke-width:1.0;" width="47" x="89" y="37.9375"/><text fill="#000000" font-family="sans-serif" font-size="12" lengthAdjust="spacing" textLength="27" x="91" y="51.0762">date</text><line style="stroke:#000000;stroke-width:1.0;" x1="125" x2="125" y1="37.9375" y2="54.9063"/><polygon fill="#000000" points="128,43.9375,134,43.9375,131,49.9063" style="stroke:#000000;stroke-width:1.0;"/><text fill="#000000" font-family="sans-serif" font-size="12" lengthAdjust="spacing" textLength="54" x="6" y="69.0449">Severity:</text><rect fill="#EEEEEE" height="16.9688" style="stroke:#000000;stroke-width:1.0;" width="191" x="89" y="57.9063"/><text fill="#000000" font-family="sans-serif" font-size="12" lengthAdjust="spacing" textLength="142" x="91" y="71.0449">Severe, Moderate, Mild</text><line style="stroke:#000000;stroke-width:1.0;" x1="269" x2="269" y1="57.9063" y2="74.875"/><polygon fill="#000000" points="272,63.9063,278,63.9063,275,69.875" style="stroke:#000000;stroke-width:1.0;"/><text fill="#000000" font-family="sans-serif" font-size="12" lengthAdjust="spacing" textLength="69" x="6" y="89.0137">Diagnosed:</text><rect fill="#EEEEEE" height="16.9688" style="stroke:#000000;stroke-width:1.0;" width="71" x="89" y="77.875"/><text fill="#000000" font-family="sans-serif" font-size="12" lengthAdjust="spacing" textLength="46" x="91" y="91.0137">Yes, No</text><line style="stroke:#000000;stroke-width:1.0;" x1="149" x2="149" y1="77.875" y2="94.8438"/><polygon fill="#000000" points="152,83.875,158,83.875,155,89.8438" style="stroke:#000000;stroke-width:1.0;"/><text fill="#000000" font-family="sans-serif" font-size="12" lengthAdjust="spacing" textLength="55" x="6" y="108.9824">Reaction:</text><text fill="#000000" font-family="sans-serif" font-size="12" lengthAdjust="spacing" textLength="49" x="92" y="108.9824">reaction</text><line style="stroke:#000000;stroke-width:1.0;" x1="90" x2="437" y1="111.8125" y2="111.8125"/><line style="stroke:#000000;stroke-width:1.0;" x1="90" x2="90" y1="108.8125" y2="110.8125"/><line style="stroke:#000000;stroke-width:1.0;" x1="437" x2="437" y1="108.8125" y2="110.8125"/><text fill="#000000" font-family="sans-serif" font-size="12" lengthAdjust="spacing" textLength="68" x="6" y="126.9512">Comments:</text><text fill="#000000" font-family="sans-serif" font-size="12" lengthAdjust="spacing" textLength="63" x="92" y="126.9512">comments</text><line style="stroke:#000000;stroke-width:1.0;" x1="90" x2="437" y1="129.7813" y2="129.7813"/><line style="stroke:#000000;stroke-width:1.0;" x1="90" x2="90" y1="126.7813" y2="128.7813"/><line style="stroke:#000000;stroke-width:1.0;" x1="437" x2="437" y1="126.7813" y2="128.7813"/><rect fill="#EEEEEE" height="17.9688" rx="5" ry="5" style="stroke:#000000;stroke-width:2.5;" width="76" x="8.5" y="136.2813"/><text fill="#000000" font-family="sans-serif" font-size="12" lengthAdjust="spacing" textLength="30" x="31.5" y="149.4199">Save</text><rect fill="#EEEEEE" height="17.9688" rx="5" ry="5" style="stroke:#000000;stroke-width:2.5;" width="180" x="91.5" y="136.2813"/><text fill="#000000" font-family="sans-serif" font-size="12" lengthAdjust="spacing" textLength="122" x="120.5" y="149.4199">Save &amp; Add Another</text><rect fill="#EEEEEE" height="17.9688" rx="5" ry="5" style="stroke:#000000;stroke-width:2.5;" width="76" x="443.5" y="136.2813"/><text fill="#000000" font-family="sans-serif" font-size="12" lengthAdjust="spacing" textLength="34" x="464.5" y="149.4199">Reset</text><rect fill="#EEEEEE" height="17.9688" rx="5" ry="5" style="stroke:#000000;stroke-width:2.5;" width="84" x="526.5" y="136.2813"/><text fill="#000000" font-family="sans-serif" font-size="12" lengthAdjust="spacing" textLength="40" x="548.5" y="149.4199">Cancel</text><line style="stroke:#000000;stroke-width:1.0;" x1="5" x2="88" y1="11.9844" y2="11.9844"/><line style="stroke:#000000;stroke-width:1.0;" x1="88" x2="440" y1="11.9844" y2="11.9844"/><line style="stroke:#000000;stroke-width:1.0;" x1="440" x2="523" y1="11.9844" y2="11.9844"/><line style="stroke:#000000;stroke-width:1.0;" x1="523" x2="614" y1="11.9844" y2="11.9844"/><line style="stroke:#000000;stroke-width:1.0;" x1="5" x2="88" y1="157.75" y2="157.75"/><line style="stroke:#000000;stroke-width:1.0;" x1="88" x2="440" y1="157.75" y2="157.75"/><line style="stroke:#000000;stroke-width:1.0;" x1="440" x2="523" y1="157.75" y2="157.75"/><line style="stroke:#000000;stroke-width:1.0;" x1="523" x2="614" y1="157.75" y2="157.75"/><line style="stroke:#000000;stroke-width:1.0;" x1="5" x2="5" y1="11.9844" y2="36.9375"/><line style="stroke:#000000;stroke-width:1.0;" x1="614" x2="614" y1="96.8438" y2="114.8125"/><line style="stroke:#000000;stroke-width:1.0;" x1="614" x2="614" y1="56.9063" y2="76.875"/><line style="stroke:#000000;stroke-width:1.0;" x1="614" x2="614" y1="11.9844" y2="36.9375"/><line style="stroke:#000000;stroke-width:1.0;" x1="5" x2="5" y1="114.8125" y2="132.7813"/><line style="stroke:#000000;stroke-width:1.0;" x1="5" x2="5" y1="76.875" y2="96.8438"/><line style="stroke:#000000;stroke-width:1.0;" x1="5" x2="5" y1="36.9375" y2="56.9063"/><line style="stroke:#000000;stroke-width:1.0;" x1="614" x2="614" y1="114.8125" y2="132.7813"/><line style="stroke:#000000;stroke-width:1.0;" x1="614" x2="614" y1="76.875" y2="96.8438"/><line style="stroke:#000000;stroke-width:1.0;" x1="614" x2="614" y1="36.9375" y2="56.9063"/><line style="stroke:#000000;stroke-width:1.0;" x1="5" x2="5" y1="132.7813" y2="157.75"/><line style="stroke:#000000;stroke-width:1.0;" x1="5" x2="5" y1="96.8438" y2="114.8125"/><line style="stroke:#000000;stroke-width:1.0;" x1="5" x2="5" y1="56.9063" y2="76.875"/><line style="stroke:#000000;stroke-width:1.0;" x1="614" x2="614" y1="132.7813" y2="157.75"/><rect fill="#FFFFFF" height="13.9688" style="stroke:#FFFFFF;stroke-width:1.0;" width="100" x="11" y="5"/><text fill="#000000" font-family="sans-serif" font-size="12" lengthAdjust="spacing" textLength="100" x="11" y="16.1387">MHV Allergy box</text><!--MD5=[75a03f17cba0b44d7edc0297fe2a77b2]
@startsalt
{^"MHV Allergy box"
  Allergy: | "name of allergy (RxNorm)   "
  Date: | ^date^
  Severity: | ^Severe, Moderate, Mild^
  Diagnosed: | ^Yes, No^
  Reaction: | "reaction                                   "
  Comments: | "comments                                   "

  [  Save   ] | [  Save & Add Another  ] | [  Reset  ] | [  Cancel  ]
}
@endsalt

PlantUML version 1.2021.5beta3(Unknown compile time)
(GPL source distribution)
Java Runtime: Java(TM) SE Runtime Environment
JVM: Java HotSpot(TM) 64-Bit Server VM
Default Encoding: UTF-8
Language: en
Country: US
--></g></svg>