<?xml version="1.0" encoding="UTF-8" standalone="no"?><svg xmlns="http://www.w3.org/2000/svg" xmlns:xlink="http://www.w3.org/1999/xlink" contentScriptType="application/ecmascript" contentStyleType="text/css" height="204px" preserveAspectRatio="none" style="width:703px;height:204px;" version="1.1" viewBox="0 0 703 204" width="703px" zoomAndPan="magnify"><defs/><g><text fill="#000000" font-family="sans-serif" font-size="12" lengthAdjust="spacing" textLength="30" x="6" y="31.1074">Kind:</text><rect fill="#EEEEEE" height="16.9688" style="stroke:#000000;stroke-width:1.0;" width="327" x="99" y="19.9688"/><text fill="#000000" font-family="sans-serif" font-size="12" lengthAdjust="spacing" textLength="241" x="101" y="33.1074">food, medication, environment, biologic</text><line style="stroke:#000000;stroke-width:1.0;" x1="415" x2="415" y1="19.9688" y2="36.9375"/><polygon fill="#000000" points="418,25.9688,424,25.9688,421,31.9375" style="stroke:#000000;stroke-width:1.0;"/><text fill="#000000" font-family="sans-serif" font-size="12" lengthAdjust="spacing" textLength="46" x="6" y="51.0762">Allergy:</text><text fill="#000000" font-family="sans-serif" font-size="12" lengthAdjust="spacing" textLength="308" x="102" y="51.0762">name of allergy or intolerance substance (RxNorm)</text><line style="stroke:#000000;stroke-width:1.0;" x1="100" x2="519" y1="53.9063" y2="53.9063"/><line style="stroke:#000000;stroke-width:1.0;" x1="100" x2="100" y1="50.9063" y2="52.9063"/><line style="stroke:#000000;stroke-width:1.0;" x1="519" x2="519" y1="50.9063" y2="52.9063"/><text fill="#000000" font-family="sans-serif" font-size="12" lengthAdjust="spacing" textLength="72" x="6" y="69.0449">Onset Date:</text><rect fill="#EEEEEE" height="16.9688" style="stroke:#000000;stroke-width:1.0;" width="47" x="99" y="57.9063"/><text fill="#000000" font-family="sans-serif" font-size="12" lengthAdjust="spacing" textLength="27" x="101" y="71.0449">date</text><line style="stroke:#000000;stroke-width:1.0;" x1="135" x2="135" y1="57.9063" y2="74.875"/><polygon fill="#000000" points="138,63.9063,144,63.9063,141,69.875" style="stroke:#000000;stroke-width:1.0;"/><text fill="#000000" font-family="sans-serif" font-size="12" lengthAdjust="spacing" textLength="54" x="6" y="89.0137">Severity:</text><rect fill="#EEEEEE" height="16.9688" style="stroke:#000000;stroke-width:1.0;" width="191" x="99" y="77.875"/><text fill="#000000" font-family="sans-serif" font-size="12" lengthAdjust="spacing" textLength="142" x="101" y="91.0137">Severe, Moderate, Mild</text><line style="stroke:#000000;stroke-width:1.0;" x1="279" x2="279" y1="77.875" y2="94.8438"/><polygon fill="#000000" points="282,83.875,288,83.875,285,89.8438" style="stroke:#000000;stroke-width:1.0;"/><text fill="#000000" font-family="sans-serif" font-size="12" lengthAdjust="spacing" textLength="69" x="6" y="108.9824">Diagnosed:</text><rect fill="#EEEEEE" height="16.9688" style="stroke:#000000;stroke-width:1.0;" width="407" x="99" y="97.8438"/><text fill="#000000" font-family="sans-serif" font-size="12" lengthAdjust="spacing" textLength="306" x="101" y="110.9824">Unconfirmed, Confirmed, Refuted, Entered-in-Error</text><line style="stroke:#000000;stroke-width:1.0;" x1="495" x2="495" y1="97.8438" y2="114.8125"/><polygon fill="#000000" points="498,103.8438,504,103.8438,501,109.8125" style="stroke:#000000;stroke-width:1.0;"/><text fill="#000000" font-family="sans-serif" font-size="12" lengthAdjust="spacing" textLength="91" x="6" y="128.9512">Reaction Code:</text><rect fill="#EEEEEE" height="16.9688" style="stroke:#000000;stroke-width:1.0;" width="47" x="99" y="117.8125"/><text fill="#000000" font-family="sans-serif" font-size="12" lengthAdjust="spacing" textLength="31" x="101" y="130.9512">code</text><line style="stroke:#000000;stroke-width:1.0;" x1="135" x2="135" y1="117.8125" y2="134.7813"/><polygon fill="#000000" points="138,123.8125,144,123.8125,141,129.7813" style="stroke:#000000;stroke-width:1.0;"/><text fill="#000000" font-family="sans-serif" font-size="12" lengthAdjust="spacing" textLength="87" x="6" y="148.9199">Reaction Note:</text><text fill="#000000" font-family="sans-serif" font-size="12" lengthAdjust="spacing" textLength="49" x="102" y="148.9199">reaction</text><line style="stroke:#000000;stroke-width:1.0;" x1="100" x2="447" y1="151.75" y2="151.75"/><line style="stroke:#000000;stroke-width:1.0;" x1="100" x2="100" y1="148.75" y2="150.75"/><line style="stroke:#000000;stroke-width:1.0;" x1="447" x2="447" y1="148.75" y2="150.75"/><text fill="#000000" font-family="sans-serif" font-size="12" lengthAdjust="spacing" textLength="68" x="6" y="166.8887">Comments:</text><text fill="#000000" font-family="sans-serif" font-size="12" lengthAdjust="spacing" textLength="63" x="102" y="166.8887">comments</text><line style="stroke:#000000;stroke-width:1.0;" x1="100" x2="447" y1="169.7188" y2="169.7188"/><line style="stroke:#000000;stroke-width:1.0;" x1="100" x2="100" y1="166.7188" y2="168.7188"/><line style="stroke:#000000;stroke-width:1.0;" x1="447" x2="447" y1="166.7188" y2="168.7188"/><rect fill="#EEEEEE" height="17.9688" rx="5" ry="5" style="stroke:#000000;stroke-width:2.5;" width="76" x="8.5" y="176.2188"/><text fill="#000000" font-family="sans-serif" font-size="12" lengthAdjust="spacing" textLength="30" x="31.5" y="189.3574">Save</text><rect fill="#EEEEEE" height="17.9688" rx="5" ry="5" style="stroke:#000000;stroke-width:2.5;" width="180" x="101.5" y="176.2188"/><text fill="#000000" font-family="sans-serif" font-size="12" lengthAdjust="spacing" textLength="122" x="130.5" y="189.3574">Save &amp; Add Another</text><rect fill="#EEEEEE" height="17.9688" rx="5" ry="5" style="stroke:#000000;stroke-width:2.5;" width="76" x="525.5" y="176.2188"/><text fill="#000000" font-family="sans-serif" font-size="12" lengthAdjust="spacing" textLength="34" x="546.5" y="189.3574">Reset</text><rect fill="#EEEEEE" height="17.9688" rx="5" ry="5" style="stroke:#000000;stroke-width:2.5;" width="84" x="608.5" y="176.2188"/><text fill="#000000" font-family="sans-serif" font-size="12" lengthAdjust="spacing" textLength="40" x="630.5" y="189.3574">Cancel</text><line style="stroke:#000000;stroke-width:1.0;" x1="5" x2="98" y1="11.9844" y2="11.9844"/><line style="stroke:#000000;stroke-width:1.0;" x1="98" x2="522" y1="11.9844" y2="11.9844"/><line style="stroke:#000000;stroke-width:1.0;" x1="522" x2="605" y1="11.9844" y2="11.9844"/><line style="stroke:#000000;stroke-width:1.0;" x1="605" x2="696" y1="11.9844" y2="11.9844"/><line style="stroke:#000000;stroke-width:1.0;" x1="5" x2="98" y1="197.6875" y2="197.6875"/><line style="stroke:#000000;stroke-width:1.0;" x1="98" x2="522" y1="197.6875" y2="197.6875"/><line style="stroke:#000000;stroke-width:1.0;" x1="522" x2="605" y1="197.6875" y2="197.6875"/><line style="stroke:#000000;stroke-width:1.0;" x1="605" x2="696" y1="197.6875" y2="197.6875"/><line style="stroke:#000000;stroke-width:1.0;" x1="5" x2="5" y1="11.9844" y2="38.9375"/><line style="stroke:#000000;stroke-width:1.0;" x1="696" x2="696" y1="96.8438" y2="116.8125"/><line style="stroke:#000000;stroke-width:1.0;" x1="696" x2="696" y1="56.9063" y2="76.875"/><line style="stroke:#000000;stroke-width:1.0;" x1="696" x2="696" y1="11.9844" y2="38.9375"/><line style="stroke:#000000;stroke-width:1.0;" x1="5" x2="5" y1="154.75" y2="172.7188"/><line style="stroke:#000000;stroke-width:1.0;" x1="5" x2="5" y1="116.8125" y2="136.7813"/><line style="stroke:#000000;stroke-width:1.0;" x1="5" x2="5" y1="76.875" y2="96.8438"/><line style="stroke:#000000;stroke-width:1.0;" x1="696" x2="696" y1="154.75" y2="172.7188"/><line style="stroke:#000000;stroke-width:1.0;" x1="5" x2="5" y1="38.9375" y2="56.9063"/><line style="stroke:#000000;stroke-width:1.0;" x1="696" x2="696" y1="116.8125" y2="136.7813"/><line style="stroke:#000000;stroke-width:1.0;" x1="696" x2="696" y1="76.875" y2="96.8438"/><line style="stroke:#000000;stroke-width:1.0;" x1="696" x2="696" y1="38.9375" y2="56.9063"/><line style="stroke:#000000;stroke-width:1.0;" x1="5" x2="5" y1="172.7188" y2="197.6875"/><line style="stroke:#000000;stroke-width:1.0;" x1="5" x2="5" y1="136.7813" y2="154.75"/><line style="stroke:#000000;stroke-width:1.0;" x1="5" x2="5" y1="96.8438" y2="116.8125"/><line style="stroke:#000000;stroke-width:1.0;" x1="696" x2="696" y1="172.7188" y2="197.6875"/><line style="stroke:#000000;stroke-width:1.0;" x1="5" x2="5" y1="56.9063" y2="76.875"/><line style="stroke:#000000;stroke-width:1.0;" x1="696" x2="696" y1="136.7813" y2="154.75"/><rect fill="#FFFFFF" height="13.9688" style="stroke:#FFFFFF;stroke-width:1.0;" width="100" x="11" y="5"/><text fill="#000000" font-family="sans-serif" font-size="12" lengthAdjust="spacing" textLength="100" x="11" y="16.1387">MHV Allergy box</text><!--MD5=[176506f3a0156973a7847557150edbc9]
@startsalt
{^"MHV Allergy box"
  Kind: | ^food, medication, environment, biologic^
  Allergy: | "name of allergy or intolerance substance (RxNorm)   "
  Onset Date: | ^date^
  Severity: | ^Severe, Moderate, Mild^
  Diagnosed: | ^Unconfirmed, Confirmed, Refuted, Entered-in-Error^
  Reaction Code: | ^code^
  Reaction Note: | "reaction                                   "
  Comments: | "comments                                   "

  [  Save   ] | [  Save & Add Another  ] | [  Reset  ] | [  Cancel  ]
}
@endsalt

PlantUML version 1.2021.5beta3(Unknown compile time)
(GPL source distribution)
Java Runtime: Java(TM) SE Runtime Environment
JVM: Java HotSpot(TM) 64-Bit Server VM
Default Encoding: UTF-8
Language: en
Country: US
--></g></svg>