<?xml version="1.0" encoding="UTF-8" standalone="no"?><svg xmlns="http://www.w3.org/2000/svg" xmlns:xlink="http://www.w3.org/1999/xlink" contentScriptType="application/ecmascript" contentStyleType="text/css" height="296px" preserveAspectRatio="none" style="width:716px;height:296px;" version="1.1" viewBox="0 0 716 296" width="716px" zoomAndPan="magnify"><defs/><g><text fill="#000000" font-family="sans-serif" font-size="12" lengthAdjust="spacing" textLength="82" x="6" y="31.1074">Immunization:</text><rect fill="#EEEEEE" height="16.9688" style="stroke:#000000;stroke-width:1.0;" width="215" x="184" y="19.9688"/><text fill="#000000" font-family="sans-serif" font-size="12" lengthAdjust="spacing" textLength="166" x="186" y="33.1074">name of Immunization code</text><line style="stroke:#000000;stroke-width:1.0;" x1="388" x2="388" y1="19.9688" y2="36.9375"/><polygon fill="#000000" points="391,25.9688,397,25.9688,394,31.9375" style="stroke:#000000;stroke-width:1.0;"/><text fill="#000000" font-family="sans-serif" font-size="12" lengthAdjust="spacing" textLength="38" x="6" y="51.0762">Other:</text><text fill="#000000" font-family="sans-serif" font-size="12" lengthAdjust="spacing" textLength="141" x="187" y="51.0762">other immunization text</text><line style="stroke:#000000;stroke-width:1.0;" x1="185" x2="412" y1="53.9063" y2="53.9063"/><line style="stroke:#000000;stroke-width:1.0;" x1="185" x2="185" y1="50.9063" y2="52.9063"/><line style="stroke:#000000;stroke-width:1.0;" x1="412" x2="412" y1="50.9063" y2="52.9063"/><text fill="#000000" font-family="sans-serif" font-size="12" lengthAdjust="spacing" textLength="92" x="6" y="69.0449">Date Received:</text><rect fill="#EEEEEE" height="16.9688" style="stroke:#000000;stroke-width:1.0;" width="47" x="184" y="57.9063"/><text fill="#000000" font-family="sans-serif" font-size="12" lengthAdjust="spacing" textLength="27" x="186" y="71.0449">date</text><line style="stroke:#000000;stroke-width:1.0;" x1="220" x2="220" y1="57.9063" y2="74.875"/><polygon fill="#000000" points="223,63.9063,229,63.9063,226,69.875" style="stroke:#000000;stroke-width:1.0;"/><text fill="#000000" font-family="sans-serif" font-size="12" lengthAdjust="spacing" textLength="49" x="6" y="89.0137">Method:</text><rect fill="#EEEEEE" height="16.9688" style="stroke:#000000;stroke-width:1.0;" width="231" x="184" y="77.875"/><text fill="#000000" font-family="sans-serif" font-size="12" lengthAdjust="spacing" textLength="162" x="186" y="91.0137">injected, inhaled, By Mouth</text><line style="stroke:#000000;stroke-width:1.0;" x1="404" x2="404" y1="77.875" y2="94.8438"/><polygon fill="#000000" points="407,83.875,413,83.875,410,89.8438" style="stroke:#000000;stroke-width:1.0;"/><text fill="#000000" font-family="sans-serif" font-size="12" lengthAdjust="spacing" textLength="176" x="6" y="108.9824">Reaction: Check all that apply</text><text fill="#000000" font-family="sans-serif" font-size="12" lengthAdjust="spacing" textLength="31" x="205" y="109.9824">Chills</text><rect fill="none" height="10" style="stroke:#000000;stroke-width:1.5;" width="10" x="187" y="100.8281"/><text fill="#000000" font-family="sans-serif" font-size="12" lengthAdjust="spacing" textLength="134" x="205" y="125.9512">Itching, Watering Eyes</text><rect fill="none" height="10" style="stroke:#000000;stroke-width:1.5;" width="10" x="187" y="116.7969"/><text fill="#000000" font-family="sans-serif" font-size="12" lengthAdjust="spacing" textLength="120" x="205" y="141.9199">Low Blood Pressure</text><rect fill="none" height="10" style="stroke:#000000;stroke-width:1.5;" width="10" x="187" y="132.7656"/><text fill="#000000" font-family="sans-serif" font-size="12" lengthAdjust="spacing" textLength="71" x="205" y="157.8887">Drowsiness</text><rect fill="none" height="10" style="stroke:#000000;stroke-width:1.5;" width="10" x="187" y="148.7344"/><text fill="#000000" font-family="sans-serif" font-size="12" lengthAdjust="spacing" textLength="34" x="205" y="173.8574">Hives</text><rect fill="none" height="10" style="stroke:#000000;stroke-width:1.5;" width="10" x="187" y="164.7031"/><text fill="#000000" font-family="sans-serif" font-size="12" lengthAdjust="spacing" textLength="61" x="205" y="189.8262">Dry Mouth</text><rect fill="none" height="10" style="stroke:#000000;stroke-width:1.5;" width="10" x="187" y="180.6719"/><text fill="#000000" font-family="sans-serif" font-size="12" lengthAdjust="spacing" textLength="56" x="205" y="205.7949">Dry Nose</text><rect fill="none" height="10" style="stroke:#000000;stroke-width:1.5;" width="10" x="187" y="196.6406"/><text fill="#000000" font-family="sans-serif" font-size="12" lengthAdjust="spacing" textLength="28" x="205" y="221.7637">Rash</text><rect fill="none" height="10" style="stroke:#000000;stroke-width:1.5;" width="10" x="187" y="212.6094"/><text fill="#000000" font-family="sans-serif" font-size="12" lengthAdjust="spacing" textLength="127" x="6" y="238.7324">Other sign/symptom:</text><rect fill="#EEEEEE" height="16.9688" style="stroke:#000000;stroke-width:1.0;" width="111" x="184" y="227.5938"/><text fill="#000000" font-family="sans-serif" font-size="12" lengthAdjust="spacing" textLength="91" x="186" y="240.7324">symptom code</text><line style="stroke:#000000;stroke-width:1.0;" x1="284" x2="284" y1="227.5938" y2="244.5625"/><polygon fill="#000000" points="287,233.5938,293,233.5938,290,239.5625" style="stroke:#000000;stroke-width:1.0;"/><text fill="#000000" font-family="sans-serif" font-size="12" lengthAdjust="spacing" textLength="68" x="6" y="258.7012">Comments:</text><text fill="#000000" font-family="sans-serif" font-size="12" lengthAdjust="spacing" textLength="63" x="187" y="258.7012">comments</text><line style="stroke:#000000;stroke-width:1.0;" x1="185" x2="532" y1="261.5313" y2="261.5313"/><line style="stroke:#000000;stroke-width:1.0;" x1="185" x2="185" y1="258.5313" y2="260.5313"/><line style="stroke:#000000;stroke-width:1.0;" x1="532" x2="532" y1="258.5313" y2="260.5313"/><rect fill="#EEEEEE" height="17.9688" rx="5" ry="5" style="stroke:#000000;stroke-width:2.5;" width="76" x="8.5" y="268.0313"/><text fill="#000000" font-family="sans-serif" font-size="12" lengthAdjust="spacing" textLength="30" x="31.5" y="281.1699">Save</text><rect fill="#EEEEEE" height="17.9688" rx="5" ry="5" style="stroke:#000000;stroke-width:2.5;" width="180" x="186.5" y="268.0313"/><text fill="#000000" font-family="sans-serif" font-size="12" lengthAdjust="spacing" textLength="122" x="215.5" y="281.1699">Save &amp; Add Another</text><rect fill="#EEEEEE" height="17.9688" rx="5" ry="5" style="stroke:#000000;stroke-width:2.5;" width="76" x="538.5" y="268.0313"/><text fill="#000000" font-family="sans-serif" font-size="12" lengthAdjust="spacing" textLength="34" x="559.5" y="281.1699">Reset</text><rect fill="#EEEEEE" height="17.9688" rx="5" ry="5" style="stroke:#000000;stroke-width:2.5;" width="84" x="621.5" y="268.0313"/><text fill="#000000" font-family="sans-serif" font-size="12" lengthAdjust="spacing" textLength="40" x="643.5" y="281.1699">Cancel</text><line style="stroke:#000000;stroke-width:1.0;" x1="5" x2="183" y1="11.9844" y2="11.9844"/><line style="stroke:#000000;stroke-width:1.0;" x1="183" x2="535" y1="11.9844" y2="11.9844"/><line style="stroke:#000000;stroke-width:1.0;" x1="535" x2="618" y1="11.9844" y2="11.9844"/><line style="stroke:#000000;stroke-width:1.0;" x1="618" x2="709" y1="11.9844" y2="11.9844"/><line style="stroke:#000000;stroke-width:1.0;" x1="5" x2="183" y1="289.5" y2="289.5"/><line style="stroke:#000000;stroke-width:1.0;" x1="183" x2="535" y1="289.5" y2="289.5"/><line style="stroke:#000000;stroke-width:1.0;" x1="535" x2="618" y1="289.5" y2="289.5"/><line style="stroke:#000000;stroke-width:1.0;" x1="618" x2="709" y1="289.5" y2="289.5"/><line style="stroke:#000000;stroke-width:1.0;" x1="5" x2="5" y1="11.9844" y2="38.9375"/><line style="stroke:#000000;stroke-width:1.0;" x1="709" x2="709" y1="96.8438" y2="226.5938"/><line style="stroke:#000000;stroke-width:1.0;" x1="709" x2="709" y1="56.9063" y2="76.875"/><line style="stroke:#000000;stroke-width:1.0;" x1="709" x2="709" y1="11.9844" y2="38.9375"/><line style="stroke:#000000;stroke-width:1.0;" x1="5" x2="5" y1="264.5313" y2="289.5"/><line style="stroke:#000000;stroke-width:1.0;" x1="5" x2="5" y1="226.5938" y2="246.5625"/><line style="stroke:#000000;stroke-width:1.0;" x1="5" x2="5" y1="76.875" y2="96.8438"/><line style="stroke:#000000;stroke-width:1.0;" x1="709" x2="709" y1="264.5313" y2="289.5"/><line style="stroke:#000000;stroke-width:1.0;" x1="5" x2="5" y1="38.9375" y2="56.9063"/><line style="stroke:#000000;stroke-width:1.0;" x1="709" x2="709" y1="226.5938" y2="246.5625"/><line style="stroke:#000000;stroke-width:1.0;" x1="709" x2="709" y1="76.875" y2="96.8438"/><line style="stroke:#000000;stroke-width:1.0;" x1="709" x2="709" y1="38.9375" y2="56.9063"/><line style="stroke:#000000;stroke-width:1.0;" x1="5" x2="5" y1="246.5625" y2="264.5313"/><line style="stroke:#000000;stroke-width:1.0;" x1="5" x2="5" y1="96.8438" y2="226.5938"/><line style="stroke:#000000;stroke-width:1.0;" x1="5" x2="5" y1="56.9063" y2="76.875"/><line style="stroke:#000000;stroke-width:1.0;" x1="709" x2="709" y1="246.5625" y2="264.5313"/><rect fill="#FFFFFF" height="13.9688" style="stroke:#FFFFFF;stroke-width:1.0;" width="136" x="11" y="5"/><text fill="#000000" font-family="sans-serif" font-size="12" lengthAdjust="spacing" textLength="136" x="11" y="16.1387">MHV Immunization box</text><!--MD5=[c947c728ef78a8e831e7eac4f961e4f6]
@startsalt
{^"MHV Immunization box"
  Immunization: | ^name of Immunization code^
  Other: | "other immunization text     "
  Date Received: | ^date^
  Method: | ^injected, inhaled, By Mouth^
  Reaction: Check all that apply {
    [] Chills
    [] Itching, Watering Eyes
    [] Low Blood Pressure
    [] Drowsiness
    [] Hives
    [] Dry Mouth
    [] Dry Nose
    [] Rash }
  Other sign/symptom: | ^symptom code^
  Comments: | "comments                                   "

  [  Save   ] | [  Save & Add Another  ] | [  Reset  ] | [  Cancel  ]
}
@endsalt

PlantUML version 1.2021.5beta3(Unknown compile time)
(GPL source distribution)
Java Runtime: Java(TM) SE Runtime Environment
JVM: Java HotSpot(TM) 64-Bit Server VM
Default Encoding: UTF-8
Language: en
Country: US
--></g></svg>